<svg xmlns='http://www.w3.org/2000/svg' width='400' height='400'>
      <defs><style>.cls-multipy{mix-blend-mode: multiply;}.cls-softlight{mix-blend-mode: soft-light;}.cls-overlay{mix-blend-mode: overlay;}.cls-colorburn{mix-blend-mode: color-burn;}.cls-screen{mix-blend-mode: screen;}.cls-lighten{ mix-blend-mode: darken;}</style>
      </defs><path fill="#ffc1b5" stroke="#000" stroke-miterlimit="10" stroke-width="5" d="M303.13,380v19.39H96.87V380c0-38.61,19.76-71.1,45.91-78.94a42.23,42.23,0,0,1,8.94-1.67h0c1.08-.09,2.16-.14,3.26-.14h90c1.1,0,2.18,0,3.26.14h0a42.32,42.32,0,0,1,12.16,2.78C285,311.65,303.13,343,303.13,380Z" class="canChange"></path><path fill="#ffc1b5" stroke="#000" stroke-miterlimit="10" stroke-width="5" d="M311.59,187.33s53.56-48.67,44.87,6.95S312.69,238,312.69,238" class="canChange"></path><path fill="none" stroke="#000" stroke-miterlimit="10" stroke-width="2" d="M345.49,178.08c-7.33,1.35-19.24,13.09-21.6,22a7.31,7.31,0,0,1,10.47-.63c3.17,2.78,4.94,8.41,4.24,13.5s-3.83,9.3-7.49,10.1"></path><path fill="#fff" d="M315.07,196.36c5.16-10.16,12.78-17.79,21.34-21.37,3-1.27,6.42-2,9.34-.19,4.05,2.51,6,9.35,5.7,15.49s-2.37,11.76-4.4,17.19c4.25-5.19,7.1-12.56,7.89-20.42.4-3.93.23-8.26-1.49-11.48A9.14,9.14,0,0,0,348,171a12.92,12.92,0,0,0-6.39,0c-10.12,2.14-19.41,10.61-24.85,22.65" class="cls-overlay"></path><path fill="#ffc1b5" stroke="#000" stroke-miterlimit="10" stroke-width="5" d="M88.41,187.33s-53.56-48.67-44.87,6.95S87.31,238,87.31,238" class="canChange"></path><path fill="none" stroke="#000" stroke-miterlimit="10" stroke-width="2" d="M54.51,178.08c7.33,1.35,19.24,13.09,21.6,22a7.31,7.31,0,0,0-10.47-.63c-3.17,2.78-4.94,8.41-4.24,13.5s3.83,9.3,7.49,10.1"></path><path fill="#fff" d="M84.93,196.36C79.77,186.2,72.15,178.57,63.59,175c-3-1.27-6.42-2-9.34-.19-4,2.51-6,9.35-5.7,15.49s2.37,11.76,4.4,17.19c-4.25-5.19-7.1-12.56-7.89-20.42-.4-3.93-.23-8.26,1.49-11.48A9.14,9.14,0,0,1,52,171a12.92,12.92,0,0,1,6.39,0c10.12,2.14,19.41,10.61,24.85,22.65" class="cls-overlay"></path><circle fill="#ffc1b5" stroke="#000" stroke-miterlimit="10" stroke-width="5" cx="199.03" cy="179.39" r="129.04" class="canChange"></circle><path fill="#fff" d="M79.76,187a128.71,128.71,0,0,0,45.12,98A129,129,0,1,1,283,81.38,129.06,129.06,0,0,0,79.76,187Z" class="cls-overlay"></path><path opacity="0.29" d="M328.31,179.39a129.06,129.06,0,0,1-252,39.18A129.08,129.08,0,0,0,312.47,117.39,128.45,128.45,0,0,1,328.31,179.39Z"></path><path fill="#963030" stroke="#000" stroke-miterlimit="10" stroke-width="5" d="M327.53,164.79c-3.07-3.89-6.71-7-10.3-10.48-10.89-10.43-19-24.39-25.12-38.48-2.81-6.5-4.3-14.82-6.91-22.15-1.6-4.48-3.61-8.58-6.6-11.67a35.38,35.38,0,0,0-14.2-8.61,63.3,63.3,0,0,0-12.33-2.81,120.84,120.84,0,0,0-26.53-.16c-5.47.52-10.52,1.27-14.72,2-4.74.83-8.4,1.67-10.37,2.14l-.44.11c-2.61-.64-9.22-2.16-17.7-3.34-3.06-.43-6.37-.81-9.81-1.1s-7.05-.46-10.68-.48c-13.3-.08-27.17,2-36.66,9-8,5.93-9.37,14.07-11.42,23.47a132.91,132.91,0,0,1-8.13,25c-6.35,14.43-16.6,30.91-32.15,34.61-.44.11-.89.21-1.34.29A151.69,151.69,0,0,1,71,142.48q0-5.26.48-10.47c.19-2.32.43-4.63.74-6.93a138.11,138.11,0,0,1,3-16,105.92,105.92,0,0,1,4.77-14.46,1.23,1.23,0,0,1,.12-.26,80,80,0,0,1,3.43-7.25,70.36,70.36,0,0,1,9.67-14l.06-.06a74.29,74.29,0,0,1,19.79-15l1.3-.7c3-1.56,6.17-3.07,9.6-4.5a158.42,158.42,0,0,1,28.85-8.71q7.17-1.49,15-2.54h0c6.78-.89,14-1.52,21.56-1.84,3.42-.15,6.91-.23,10.5-.24,1.55,0,3.08,0,4.61.06,8.12.16,15.8.67,23,1.48s14,1.91,20.38,3.26c1.8.38,3.57.79,5.3,1.21q4.69,1.14,9,2.46a132.71,132.71,0,0,1,22.57,9,94.83,94.83,0,0,1,11.47,7,64.76,64.76,0,0,1,10,8.77l.31.35c12.78,14.24,18.63,33.7,21,51.92A147.9,147.9,0,0,1,327.53,164.79Z" class="canChange" style="fill:rgb(123, 38, 38)"></path><path fill="#fff" d="M167.92,41.67C136.55,51.14,92.68,69.17,84.5,97.5c-8.73,30.21-10.69,52.77-11,64.32-.44.11-.89.21-1.34.29A151.69,151.69,0,0,1,71,142.48q0-5.26.48-10.47c.19-2.32.43-4.63.74-6.93a138.11,138.11,0,0,1,3-16,105.92,105.92,0,0,1,4.77-14.46,1.23,1.23,0,0,1,.12-.26,80,80,0,0,1,3.43-7.25,70.36,70.36,0,0,1,9.67-14l.06-.06a74.29,74.29,0,0,1,19.79-15l1.3-.7c3-1.56,6.17-3.07,9.6-4.5a158.42,158.42,0,0,1,28.85-8.71Q160,42.72,167.92,41.67Z" class="cls-overlay"></path><g opacity="0.31" class="show"><path d="M327.53,164.79c-3.07-3.89-6.71-7-10.3-10.48-10.89-10.43-19-24.39-25.12-38.48-2.81-6.5-4.3-14.82-6.91-22.15-1.6-4.48-3.61-8.58-6.6-11.67a35.38,35.38,0,0,0-14.2-8.61,63.3,63.3,0,0,0-12.33-2.81,120.84,120.84,0,0,0-26.53-.16c-5.47.52-10.52,1.27-14.72,2-4.74.83-8.4,1.67-10.37,2.14L198,71s62-10,72-12c4.19-.84-4.8-6.78-16.67-13.4q4.69,1.14,9,2.46a132.71,132.71,0,0,1,22.57,9,94.83,94.83,0,0,1,11.47,7,64.76,64.76,0,0,1,10,8.77l.31.35c12.78,14.24,18.63,33.7,21,51.92A147.9,147.9,0,0,1,327.53,164.79Z"></path></g><path d="M159,145.05c-4.59-8.32-11.92-15.63-19.74-20.88-16.94-11.36-37-10.26-54.88-1.74-5.81,2.77-.74,11.39,5,8.64,15.42-7.35,32.2-7.49,46.26,2.76a51.46,51.46,0,0,1,14.69,16.27c3.1,5.64,11.74.6,8.63-5Z" class="canChange"></path><path d="M246,159.34a52.85,52.85,0,0,1,18.23-13.26c16.21-7.31,32.6-2.88,46.32,7.53,5.12,3.88,10.11-4.8,5-8.64-15.54-11.79-34.88-16.35-53.34-8.85-8.62,3.5-17.2,9-23.33,16.15-4.17,4.86,2.87,12,7.08,7.07Z" class="canChange"></path><ellipse opacity="0.29" cx="277.91" cy="192.44" rx="42.09" ry="43.67"></ellipse><ellipse fill="#fff" cx="277.11" cy="190.24" rx="40.59" ry="42.17"></ellipse><path d="M277.11,149.57c21.55,0,39.09,18.25,39.09,40.67s-17.54,40.67-39.09,40.67S238,212.66,238,190.24s17.53-40.67,39.09-40.67m0-3c-23.25,0-42.09,19.55-42.09,43.67s18.84,43.67,42.09,43.67,42.09-19.55,42.09-43.67-18.85-43.67-42.09-43.67Z"></path><path opacity="0.29" d="M319.19,190.24c0,24.12-18.84,43.66-42.09,43.66A41.47,41.47,0,0,1,243.82,217a52.93,52.93,0,0,0,16.33,2.57c26.18,0,47.4-18.92,47.4-42.25a39,39,0,0,0-8.75-24.47A44,44,0,0,1,319.19,190.24Z"></path><ellipse cx="278.35" cy="190.42" rx="22.69" ry="23.66" transform="translate(77 460.96) rotate(-87.72)" class="canChange" style="fill:rgb(142, 115, 57)"></ellipse><ellipse fill="#f2f2f2" cx="266.16" cy="177.12" rx="6.99" ry="7.07"></ellipse><ellipse fill="#f2f2f2" cx="262.16" cy="193.3" rx="8.99" ry="9.1"></ellipse><ellipse opacity="0.29" cx="122.09" cy="194.44" rx="42.09" ry="43.67"></ellipse><ellipse fill="#fff" cx="122.89" cy="192.24" rx="40.59" ry="42.17"></ellipse><path d="M122.89,151.57c21.56,0,39.09,18.25,39.09,40.67s-17.53,40.67-39.09,40.67S83.8,214.66,83.8,192.24s17.54-40.67,39.09-40.67m0-3c-23.24,0-42.09,19.55-42.09,43.67s18.85,43.67,42.09,43.67S165,216.36,165,192.24s-18.84-43.67-42.09-43.67Z"></path><path opacity="0.29" d="M166.18,192.24c0,24.12-18.84,43.66-42.09,43.66A41.47,41.47,0,0,1,90.81,219a52.93,52.93,0,0,0,16.33,2.57c26.18,0,47.4-18.92,47.4-42.25a39,39,0,0,0-8.75-24.47A44,44,0,0,1,166.18,192.24Z"></path><ellipse cx="123.35" cy="190.42" rx="22.69" ry="23.66" transform="translate(-71.83 306.08) rotate(-87.72)" class="canChange" style="fill:rgb(142, 115, 57)"></ellipse><ellipse fill="#f2f2f2" cx="111.16" cy="177.12" rx="6.99" ry="7.07"></ellipse><ellipse fill="#f2f2f2" cx="107.16" cy="193.3" rx="8.99" ry="9.1"></ellipse><path fill="#2e0f0e" stroke="#000" stroke-miterlimit="10" stroke-width="4" d="M235.57,235.23s-1.8,23.65-15.4,35.62a26.33,26.33,0,0,1-13,6.33c-13.35,2.38-24,0-31.45-6.39-8.06-6.84-12.54-18.27-13-33.24a38,38,0,0,0,5.34,4c9.62,6.07,31.45,15.37,59.35-.91A87.77,87.77,0,0,0,235.57,235.23Z"></path><path fill="#c74d5a" d="M181,272.43c7.67,4.72,17.5,8.19,26.51,4.61a22.36,22.36,0,0,0,7.12-4.59c-7.53-8.87-18.12-4.71-18.12-4.71l-1.5-.58-.23-.09C185.41,263.59,181.43,271.42,181,272.43Z"></path><path d="M189.54,271.79a3.34,3.34,0,0,1,.05-2.56,4.43,4.43,0,0,1,4.12-2.71,3.13,3.13,0,0,1,2.36,1.09c-.8.5-1.34.87-1.83,1.21s-.92.65-1.36.94-.9.57-1.42.89S190.36,271.33,189.54,271.79Z"></path><path opacity="0.18" d="M191.48,269.42c6.89-2,12.75,3.51,16,7.62a22.36,22.36,0,0,0,7.12-4.59c-7.53-8.87-18.12-4.71-18.12-4.71l-1.5-.58-.23-.09Z"></path><path fill="#fff" opacity="0.49" d="M184.87,269.47a2.75,2.75,0,0,0-.34,2.23,1.8,1.8,0,0,0,1.61,1.37,1.66,1.66,0,0,0,1.29-.9,6.34,6.34,0,0,0,.59-1.65,3.25,3.25,0,0,0,.12-1.42C187.64,266.84,185.45,268.56,184.87,269.47Z"></path><path fill="#fff" d="M227.38,241.46A45.25,45.25,0,0,1,224,251.77c-5.07,10.86-49.86,6.18-53,3.47a3.44,3.44,0,0,1-.79-1.13,22.55,22.55,0,0,1-1.49-5.64h0c-.31-1.92-.55-4-.73-6.09C177.65,248.44,199.48,257.75,227.38,241.46Z"></path><path opacity="0.18" d="M227.38,241.46A45.25,45.25,0,0,1,224,251.77c-5.07,10.86-49.86,6.18-53,3.47a3.44,3.44,0,0,1-.79-1.13c9.6,4,36.28,2.38,36.28,2.38,10.41.49,16.14-10.34,12-6.26s-33.35,1.83-44.38.46a10.41,10.41,0,0,1-5.42-2.22h0c-.31-1.92-.55-4-.73-6.09C177.65,248.44,199.48,257.75,227.38,241.46Z"></path><path fill="#6e3e23" stroke="#000" stroke-miterlimit="10" stroke-width="5" d="M249.36,258.86c4.63.68,12.35-10.36-6.19-20.53-4.21-2.31-20.66-15.25-31.43-18.94a15.67,15.67,0,0,0-4.88-1s-1.71,3.54-6.86,3.25a7.89,7.89,0,0,1-4.84-1.15,5.75,5.75,0,0,1-2-2.1c-9.75,0-31.39,17.22-36.31,19.92-18.54,10.17-10.82,21.21-6.19,20.53-10.7,25.8-7.91,42.83.26,54.06v0c6.84,9.38,17.43,14.71,27.06,17.71a72.4,72.4,0,0,0,11.52,2.6,74,74,0,0,0,32.54-2.6C243.16,324.06,269,306.27,249.36,258.86Zm-21.17,31.25A40.78,40.78,0,0,1,205.13,300c-1.62.12-2.14-1.28-1.13-4.66,8.23-2.25,16.15-7.5,18-10.46.71-1.15.5-1.95-1-2.09a4.2,4.2,0,0,0-1.46.15c-4.83,1.15-12.58,8.63-16.54,7.17a15.33,15.33,0,0,0-7,0c-4.39,1.62-13.44-7.75-18-7.32-5.28.51,6.58,9.43,18,12.55,1,3.38,1.41,4.93-1.13,4.66-23.45-2.43-34.17-21.21-38.82-34.33a74.16,74.16,0,0,1-3-10.81s0-.08,0-.13c.23-1.69,1.57-3.09,3.67-4.25C167.87,244.34,200,245,200,245a219.36,219.36,0,0,1,26.51,1.29c10.26,1.26,19.73,3.72,20.37,8.48,0,.05,0,.08,0,.13C245.78,260.85,241.37,278.67,228.19,290.11Z" class="canChange" style="fill:rgb(101, 28, 28)"></path><path opacity="0.29" d="M222,330.65a74,74,0,0,1-32.54,2.6c46.57-12.55,41.1-36.7,38.7-43.14,13.18-11.44,17.59-29.26,18.73-35.26,0,0,0-.08,0-.13-.64-4.76-10.11-7.22-20.37-8.48-.84-8.08-7.48-18.09-14.77-26.85,10.77,3.69,27.22,16.63,31.43,18.94,18.54,10.17,10.82,21.21,6.19,20.53C269,306.27,243.16,324.06,222,330.65Z"></path><path fill="#fff" d="M156.32,260.19a5.31,5.31,0,0,1,.4-8.27l.07-1.45S157,244,161,240c3.07-3.07,24.41-14.39,34.16-19.49a5.75,5.75,0,0,1-2-2.1c-9.75,0-31.39,17.22-36.31,19.92-18.54,10.17-10.82,21.21-6.19,20.53-10.7,25.8-7.91,42.83.26,54.06-8.1-18.08,5.15-47.26,5.15-47.26Z" class="cls-overlay"></path><path fill="#961c1c" stroke="#000" stroke-miterlimit="10" stroke-width="5" d="M305.79,378.24V400H94.7V378.24c0-43.32,20.22-79.77,47-88.57a39.71,39.71,0,0,1,9.14-1.88h0c1.11-.1,2.21-.16,3.34-.16h92.13c1.12,0,2.22.06,3.33.16h0a40.61,40.61,0,0,1,12.45,3.12C287.21,301.5,305.79,336.72,305.79,378.24Z" class="canChange"></path><path opacity="0.29" d="M261.23,290.28c-13.24,9.16-34.89,15.13-59.36,15.13-25.54,0-48-6.51-61.06-16.38a40.33,40.33,0,0,1,9.15-1.88h0c1.11-.1,2.21-.15,3.33-.15h92.13c1.13,0,2.23.05,3.34.15h0A40.49,40.49,0,0,1,261.23,290.28Z"></path><path fill="#961c1c" stroke="#000" stroke-miterlimit="10" stroke-width="5" d="M272.61,354.56v44.88l30.84-.07S314,267,270.88,296.21l-.51,9" class="canChange"></path><path fill="#961c1c" stroke="#000" stroke-miterlimit="10" stroke-width="5" d="M126.69,354.56v44.88l-30.83-.07S85.29,267,128.43,296.21l-.56,12.34" class="canChange"></path><path fill="#fff" d="M127.87,296.21s-21.88,1.68-23,27.49-2.24,75.18-2.24,75.18l-8.42.56,2.2-66.89,9.21-33.29S114.41,289.48,127.87,296.21Z" class="cls-overlay"></path><g opacity="0.29"><path d="M269.81,295.65s25.81,14.59,25.81,57.22-2.27,46.5-2.27,46.5l12.37.63s1.06-70.88-6.21-86.49S285.52,282.19,269.81,295.65Z"></path></g></svg>